<svg width="38" height="38" viewBox="0 0 38 38" fill="none" xmlns="http://www.w3.org/2000/svg">
<rect width="37.61" height="37.59" rx="6" fill="#F7F7F7"/>
<path d="M16.1773 11.5035C14.726 11.5035 13.5497 12.6799 13.5497 14.1312V20.2622C13.5497 21.7134 14.726 22.8898 16.1773 22.8898H24.9361C26.3872 22.8898 27.5638 21.7134 27.5638 20.2622V14.1312C27.5638 12.6799 26.3872 11.5035 24.9361 11.5035H16.1773ZM24.9361 12.8173C25.6616 12.8173 26.2499 13.4055 26.2499 14.1312V15.0069H14.8635V14.1312C14.8635 13.4055 15.4517 12.8173 16.1773 12.8173H24.9361ZM14.8635 20.2622V16.7588H26.2499V20.2622C26.2499 20.9878 25.6616 21.576 24.9361 21.576H16.1773C15.4517 21.576 14.8635 20.9878 14.8635 20.2622ZM11.579 15.8828C11.579 15.52 11.2849 15.2259 10.922 15.2259C10.5592 15.2259 10.2651 15.52 10.2651 15.8828V22.8898C10.2651 24.7039 11.7358 26.1743 13.5497 26.1743H23.1842C23.5471 26.1743 23.8411 25.8802 23.8411 25.5174C23.8411 25.1548 23.5471 24.8605 23.1842 24.8605H13.5497C12.4612 24.8605 11.579 23.9783 11.579 22.8898V15.8828Z" fill="#E15726"/>
</svg>
