<svg width="38" height="38" viewBox="0 0 38 38" fill="none" xmlns="http://www.w3.org/2000/svg">
<rect width="37.61" height="37.59" rx="6" fill="#F7F7F7"/>
<path d="M20.5567 21.3571C20.194 21.3571 19.8997 21.6511 19.8997 22.014C19.8997 22.3766 20.194 22.6709 20.5567 22.6709H24.0602C24.4231 22.6709 24.7171 22.3766 24.7171 22.014C24.7171 21.6511 24.4231 21.3571 24.0602 21.3571H20.5567ZM12.6738 11.5035C11.2227 11.5035 10.0461 12.6798 10.0461 14.1311V22.8897C10.0461 24.341 11.2227 25.5173 12.6738 25.5173H24.9362C26.3873 25.5173 27.5638 24.341 27.5638 22.8897V14.1311C27.5638 12.6798 26.3873 11.5035 24.9362 11.5035H12.6738ZM24.9362 12.8173C25.6616 12.8173 26.25 13.4054 26.25 14.1311V15.2259H11.36V14.1311C11.36 13.4054 11.9483 12.8173 12.6738 12.8173H24.9362ZM11.36 22.8897V16.5397H26.25V22.8897C26.25 23.6154 25.6616 24.2035 24.9362 24.2035H12.6738C11.9483 24.2035 11.36 23.6154 11.36 22.8897Z" fill="#E15726"/>
</svg>
