<svg width="38" height="38" viewBox="0 0 38 38" fill="none" xmlns="http://www.w3.org/2000/svg">
<rect width="37.61" height="37.59" rx="6" fill="#F7F7F7"/>
<path d="M19.7006 10.5185C19.2953 10.6923 18.9252 10.916 18.6471 11.1979C18.3662 11.4825 18.148 11.8613 18.148 12.3168C18.148 12.3379 18.1484 12.3587 18.1495 12.3793H18.148V16.7601C18.0702 16.7212 17.9904 16.6844 17.9092 16.6497C17.0963 16.3014 16.019 16.1019 14.8635 16.1019C13.708 16.1019 12.6306 16.3014 11.8177 16.6497C11.4125 16.8233 11.0425 17.047 10.7642 17.3291C10.4833 17.6137 10.2651 17.9925 10.2651 18.4481C10.2651 18.4691 10.2656 18.4899 10.2666 18.5105H10.2651V24.3289C10.2651 24.7842 10.4833 25.1632 10.7642 25.4478C11.0425 25.7297 11.4125 25.9534 11.8177 26.1272C12.6306 26.4756 13.708 26.675 14.8635 26.675C16.019 26.675 17.0963 26.4756 17.9092 26.1272C18.3145 25.9534 18.6847 25.7297 18.9628 25.4478C19.2438 25.1632 19.4618 24.7842 19.4618 24.3289V23.389C19.5396 23.4279 19.6195 23.4647 19.7006 23.4996C20.5135 23.8479 21.5908 24.0474 22.7464 24.0474C23.9019 24.0474 24.9792 23.8479 25.7921 23.4996C26.1974 23.3258 26.5676 23.1021 26.8457 22.8202C27.1267 22.5356 27.3447 22.1566 27.3447 21.7013V12.3793H27.3432C27.3443 12.3587 27.3447 12.3379 27.3447 12.3168C27.3447 11.8613 27.1267 11.4825 26.8457 11.1979C26.5676 10.916 26.1974 10.6923 25.7921 10.5185C24.9792 10.1702 23.9019 9.97069 22.7464 9.97069C21.5908 9.97069 20.5135 10.1702 19.7006 10.5185ZM19.5821 12.1207C19.7029 11.9984 19.9102 11.8582 20.2182 11.7262C20.8318 11.4632 21.7252 11.2845 22.7464 11.2845C23.7676 11.2845 24.661 11.4632 25.2746 11.7262C25.5825 11.8582 25.7898 11.9984 25.9107 12.1207C26.0284 12.2401 26.0309 12.3057 26.0309 12.3168C26.0309 12.3278 26.0284 12.3934 25.9107 12.5128C25.7898 12.6351 25.5825 12.7755 25.2746 12.9075C24.661 13.1703 23.7676 13.349 22.7464 13.349C21.7252 13.349 20.8318 13.1703 20.2182 12.9075C19.9102 12.7755 19.7029 12.6351 19.5821 12.5128C19.4644 12.3934 19.4618 12.3278 19.4618 12.3168C19.4618 12.3057 19.4644 12.2401 19.5821 12.1207ZM11.579 20.1358C11.6567 20.1745 11.7366 20.2113 11.8177 20.2462C12.6306 20.5945 13.708 20.794 14.8635 20.794C16.019 20.794 17.0963 20.5945 17.9092 20.2462C17.9904 20.2113 18.0702 20.1745 18.148 20.1358V21.201C18.148 21.2121 18.1455 21.2775 18.0278 21.3971C17.9069 21.5194 17.6996 21.6596 17.3917 21.7917C16.7781 22.0546 15.8847 22.2333 14.8635 22.2333C13.8423 22.2333 12.9489 22.0546 12.3353 21.7917C12.0273 21.6596 11.8201 21.5194 11.6994 21.3971C11.5815 21.2775 11.579 21.2121 11.579 21.201V20.1358ZM19.4618 18.5733V17.1328C19.5396 17.1717 19.6195 17.2084 19.7006 17.2431C20.5135 17.5917 21.5908 17.7911 22.7464 17.7911C23.9019 17.7911 24.9792 17.5917 25.7921 17.2431C25.8732 17.2084 25.9531 17.1717 26.0309 17.1328V18.5733C26.0309 18.5845 26.0284 18.6499 25.9107 18.7695C25.7898 18.8918 25.5825 19.032 25.2746 19.164C24.661 19.427 23.7676 19.6057 22.7464 19.6057C21.7252 19.6057 20.8318 19.427 20.2182 19.164C19.9102 19.032 19.7029 18.8918 19.5821 18.7695C19.4644 18.6499 19.4618 18.5845 19.4618 18.5733ZM19.4618 20.2611C19.5396 20.3 19.6195 20.3368 19.7006 20.3715C20.5135 20.72 21.5908 20.9195 22.7464 20.9195C23.9019 20.9195 24.9792 20.72 25.7921 20.3715C25.8732 20.3368 25.9531 20.3 26.0309 20.2611V21.7013C26.0309 21.7124 26.0284 21.7778 25.9107 21.8974C25.7898 22.0197 25.5825 22.1599 25.2746 22.292C24.661 22.5549 23.7676 22.7336 22.7464 22.7336C21.7252 22.7336 20.8318 22.5549 20.2182 22.292C19.9102 22.1599 19.7029 22.0197 19.5821 21.8974C19.4644 21.7778 19.4618 21.7124 19.4618 21.7013V20.2611ZM18.148 22.8887V24.3289C18.148 24.34 18.1455 24.4054 18.0278 24.525C17.9069 24.6474 17.6996 24.7876 17.3917 24.9196C16.7781 25.1826 15.8847 25.3612 14.8635 25.3612C13.8423 25.3612 12.9489 25.1826 12.3353 24.9196C12.0273 24.7876 11.8201 24.6474 11.6994 24.525C11.5815 24.4054 11.579 24.34 11.579 24.3289V22.8887C11.6567 22.9276 11.7366 22.9644 11.8177 22.9991C12.6306 23.3476 13.708 23.5471 14.8635 23.5471C16.019 23.5471 17.0963 23.3476 17.9092 22.9991C17.9904 22.9644 18.0702 22.9276 18.148 22.8887ZM18.148 18.4481C18.148 18.459 18.1455 18.5246 18.0278 18.644C17.9069 18.7663 17.6996 18.9065 17.3917 19.0385C16.7781 19.3015 15.8847 19.4802 14.8635 19.4802C13.8423 19.4802 12.9489 19.3015 12.3353 19.0385C12.0273 18.9065 11.8201 18.7663 11.6994 18.644C11.5815 18.5246 11.579 18.459 11.579 18.4481C11.579 18.4369 11.5815 18.3713 11.6994 18.2519C11.8201 18.1296 12.0273 17.9892 12.3353 17.8572C12.9489 17.5944 13.8423 17.4157 14.8635 17.4157C15.8847 17.4157 16.7781 17.5944 17.3917 17.8572C17.6996 17.9892 17.9069 18.1296 18.0278 18.2519C18.1455 18.3713 18.148 18.4369 18.148 18.4481ZM25.7921 14.115C25.8732 14.0803 25.9531 14.0435 26.0309 14.0046V15.445C26.0309 15.4559 26.0284 15.5215 25.9107 15.6409C25.7898 15.7632 25.5825 15.9037 25.2746 16.0355C24.661 16.2984 23.7676 16.4771 22.7464 16.4771C21.7252 16.4771 20.8318 16.2984 20.2182 16.0355C19.9102 15.9037 19.7029 15.7632 19.5821 15.6409C19.4644 15.5215 19.4618 15.4559 19.4618 15.445V14.0046C19.5396 14.0435 19.6195 14.0803 19.7006 14.115C20.5135 14.4635 21.5908 14.6628 22.7464 14.6628C23.9019 14.6628 24.9792 14.4635 25.7921 14.115Z" fill="#E15726"/>
</svg>
